<svg width="14" height="15" viewBox="0 0 14 15" fill="none" xmlns="http://www.w3.org/2000/svg">
<path d="M6.23438 4.79688C6.125 4.74219 6.01562 4.6875 5.90625 4.6875C5.52344 4.6875 5.25 5.01562 5.25 5.34375V10.1562C5.25 10.5117 5.52344 10.8125 5.90625 10.8125C6.01562 10.8125 6.125 10.7852 6.23438 10.7305L10.1719 8.32422C10.3633 8.21484 10.5 7.99609 10.5 7.75C10.5 7.53125 10.3633 7.3125 10.1719 7.20312L6.23438 4.79688ZM6.125 9.77344V5.75391L9.40625 7.77734L6.125 9.77344ZM7 0.75C3.11719 0.75 0 3.89453 0 7.75C0 11.6328 3.11719 14.75 7 14.75C10.8555 14.75 14 11.6328 14 7.75C14 3.89453 10.8555 0.75 7 0.75ZM7 13.875C3.60938 13.875 0.875 11.1406 0.875 7.75C0.875 4.38672 3.60938 1.625 7 1.625C10.3633 1.625 13.125 4.38672 13.125 7.75C13.125 11.1406 10.3633 13.875 7 13.875Z" fill="#808B9A"/>
</svg>
