<svg width="15" height="12" viewBox="0 0 15 12" fill="none" xmlns="http://www.w3.org/2000/svg">
<path d="M3.07812 3.98828C2.99609 4.07031 2.88672 4.125 2.75 4.125C2.64062 4.15234 2.50391 4.09766 2.42188 4.01562L1.10938 2.70312C0.945312 2.53906 0.945312 2.23828 1.10938 2.07422C1.27344 1.91016 1.57422 1.91016 1.73828 2.07422L2.69531 3.05859L4.58203 0.789062C4.74609 0.597656 5.01953 0.597656 5.21094 0.734375C5.40234 0.898438 5.40234 1.17188 5.26562 1.36328L3.07812 3.98828ZM3.07812 8.36328C2.99609 8.44531 2.88672 8.5 2.75 8.5C2.64062 8.52734 2.50391 8.47266 2.42188 8.39062L1.10938 7.07812C0.945312 6.91406 0.945312 6.61328 1.10938 6.44922C1.27344 6.28516 1.57422 6.28516 1.73828 6.44922L2.69531 7.43359L4.58203 5.16406C4.74609 4.97266 5.01953 4.97266 5.21094 5.10938C5.40234 5.27344 5.40234 5.54688 5.26562 5.73828L3.07812 8.36328ZM6.22266 2.375C6.22266 2.15625 6.44141 1.9375 6.66016 1.9375H14.5625C14.7812 1.9375 15 2.15625 15 2.375C15 2.62109 14.7812 2.8125 14.5625 2.8125H6.66016C6.44141 2.8125 6.22266 2.62109 6.22266 2.375ZM6.22266 6.75C6.22266 6.53125 6.44141 6.3125 6.66016 6.3125H14.5625C14.7812 6.3125 15 6.53125 15 6.75C15 6.99609 14.7812 7.1875 14.5625 7.1875H6.66016C6.44141 7.1875 6.22266 6.99609 6.22266 6.75ZM5.34766 11.125C5.34766 10.9062 5.56641 10.6875 5.78516 10.6875H14.5625C14.7812 10.6875 15 10.9062 15 11.125C15 11.3711 14.7812 11.5625 14.5625 11.5625H5.78516C5.56641 11.5625 5.34766 11.3711 5.34766 11.125ZM2.72266 12C2.25781 12 1.84766 11.6172 1.84766 11.125C1.84766 10.6602 2.25781 10.25 2.72266 10.25C3.21484 10.25 3.59766 10.6602 3.59766 11.125C3.59766 11.6172 3.21484 12 2.72266 12Z" fill="#808B9A"/>
</svg>
