<svg width="15" height="13" viewBox="0 0 15 13" fill="none" xmlns="http://www.w3.org/2000/svg">
<path d="M5.15625 0.816406C5.40234 1.0625 5.42969 1.47266 5.18359 1.74609L3.21484 3.93359C3.10547 4.04297 2.94141 4.125 2.75 4.125C2.58594 4.15234 2.39453 4.07031 2.28516 3.93359L1.19141 2.83984C0.917969 2.59375 0.917969 2.18359 1.19141 1.9375C1.4375 1.66406 1.84766 1.66406 2.09375 1.9375L2.72266 2.53906L4.22656 0.84375C4.47266 0.597656 4.88281 0.570312 5.15625 0.816406ZM5.15625 5.19141C5.40234 5.41016 5.42969 5.84766 5.18359 6.12109L3.21484 8.30859C3.10547 8.41797 2.94141 8.5 2.75 8.5C2.58594 8.52734 2.39453 8.44531 2.28516 8.30859L1.19141 7.21484C0.917969 6.96875 0.917969 6.55859 1.19141 6.28516C1.4375 6.03906 1.84766 6.03906 2.09375 6.28516L2.72266 6.91406L4.22656 5.21875C4.47266 4.97266 4.88281 4.94531 5.15625 5.19141ZM7.125 2.375C7.125 1.91016 7.50781 1.5 8 1.5H14.125C14.5898 1.5 15 1.91016 15 2.375C15 2.86719 14.5898 3.25 14.125 3.25H8C7.50781 3.25 7.125 2.86719 7.125 2.375ZM7.125 6.75C7.125 6.28516 7.50781 5.875 8 5.875H14.125C14.5898 5.875 15 6.28516 15 6.75C15 7.24219 14.5898 7.625 14.125 7.625H8C7.50781 7.625 7.125 7.24219 7.125 6.75ZM5.375 11.125C5.375 10.6602 5.75781 10.25 6.25 10.25H14.125C14.5898 10.25 15 10.6602 15 11.125C15 11.6172 14.5898 12 14.125 12H6.25C5.75781 12 5.375 11.6172 5.375 11.125ZM1 11.125C1 10.4141 1.57422 9.8125 2.3125 9.8125C3.02344 9.8125 3.625 10.4141 3.625 11.125C3.625 11.8633 3.02344 12.4375 2.3125 12.4375C1.57422 12.4375 1 11.8633 1 11.125Z" fill="#4DDAFF"/>
</svg>
