<svg xmlns="http://www.w3.org/2000/svg" width="18" height="18" viewBox="0 0 16 16" fill="none">
<path d="M15.2656 15.3125C14.9844 15.5938 14.4688 15.5938 14.1875 15.3125L8 9.07812L1.76562 15.3125C1.48438 15.5938 0.96875 15.5938 0.6875 15.3125C0.40625 15.0312 0.40625 14.5156 0.6875 14.2344L6.92188 8L0.6875 1.8125C0.40625 1.53125 0.40625 1.01562 0.6875 0.734375C0.96875 0.453125 1.48438 0.453125 1.76562 0.734375L8 6.96875L14.1875 0.734375C14.4688 0.453125 14.9844 0.453125 15.2656 0.734375C15.5469 1.01562 15.5469 1.53125 15.2656 1.8125L9.03125 8L15.2656 14.2344C15.5469 14.5156 15.5469 15.0312 15.2656 15.3125Z" fill="#0093FC"/>
</svg>