<svg width="11" height="15" viewBox="0 0 11 15" fill="none" xmlns="http://www.w3.org/2000/svg">
<path d="M3.3125 12.6914C3.3125 12.8555 3.33984 13.0195 3.44922 13.1562L3.91406 13.8672C4.05078 14.0859 4.37891 14.25 4.65234 14.25H6.32031C6.59375 14.25 6.92188 14.0859 7.05859 13.8672L7.52344 13.1562C7.60547 13.0469 7.66016 12.8281 7.66016 12.6914L7.6875 11.625H3.3125V12.6914ZM5.5 0.25C2.71094 0.277344 0.6875 2.51953 0.6875 5.0625C0.6875 6.26562 1.125 7.35938 1.86328 8.20703C2.32812 8.72656 3.01172 9.82031 3.28516 10.7227C3.28516 10.7227 3.28516 10.7227 3.28516 10.75H7.6875C7.6875 10.7227 7.6875 10.7227 7.6875 10.7227C7.96094 9.82031 8.64453 8.72656 9.10938 8.20703C9.84766 7.38672 10.3125 6.29297 10.3125 5.0625C10.3125 2.41016 8.15234 0.277344 5.5 0.25ZM8.125 7.38672C7.6875 7.85156 7.16797 8.64453 6.78516 9.4375H4.1875C3.80469 8.64453 3.28516 7.85156 2.84766 7.38672C2.30078 6.73047 2 5.91016 2 5.0625C2 3.36719 3.3125 1.58984 5.47266 1.5625C7.41406 1.5625 9 3.14844 9 5.0625C9 5.91016 8.67188 6.73047 8.125 7.38672ZM5.0625 2.4375C3.83203 2.4375 2.875 3.42188 2.875 4.625C2.875 4.87109 3.06641 5.0625 3.3125 5.0625C3.53125 5.0625 3.75 4.87109 3.75 4.625C3.75 3.91406 4.32422 3.3125 5.0625 3.3125C5.28125 3.3125 5.5 3.12109 5.5 2.90234C5.5 2.65625 5.28125 2.4375 5.0625 2.4375Z" fill="#495057"/>
</svg>
