<svg width="19" height="17" viewBox="0 0 19 17" fill="none" xmlns="http://www.w3.org/2000/svg">
<path d="M3.875 6H1.625C0.992188 6 0.5 6.49219 0.5 7.08984V14.9297C0.5 15.5273 0.992188 16.0195 1.625 16.0195H3.875C4.47266 16.0195 5 15.5273 5 14.9297V7.125C5 6.52734 4.47266 6 3.875 6ZM18.5 7.23047C18.5 5.96484 17.4102 4.91016 16.1445 4.91016H12.6289C12.9453 4.03125 13.1562 3.25781 13.1562 2.80078C13.1562 1.60547 12.207 0.410156 10.6602 0.410156C9.04297 0.410156 8.58594 1.53516 8.23438 2.44922C7.10938 5.29688 6.125 4.76953 6.125 5.71875C6.125 6.17578 6.47656 6.5625 6.96875 6.5625C7.14453 6.5625 7.32031 6.52734 7.46094 6.38672C10.168 4.24219 9.5 2.09766 10.6602 2.09766C11.2578 2.09766 11.4688 2.51953 11.4688 2.80078C11.4688 3.08203 11.1875 4.20703 10.5547 5.33203C10.4844 5.47266 10.4492 5.61328 10.4492 5.75391C10.4492 6.24609 10.8359 6.5625 11.293 6.5625H16.1094C16.4961 6.59766 16.8125 6.87891 16.8125 7.23047C16.8125 7.58203 16.5312 7.89844 16.1797 7.89844C15.7227 7.93359 15.3711 8.32031 15.3711 8.74219C15.3711 9.30469 15.793 9.30469 15.793 9.76172C15.793 10.6406 14.5625 10.1836 14.5625 11.2383C14.5625 11.625 14.7734 11.6953 14.7734 12.0117C14.7734 12.8203 13.7188 12.5039 13.7188 13.4531C13.7188 13.6289 13.7891 13.6641 13.7891 13.8047C13.7891 14.1562 13.4727 14.4727 13.1211 14.4727H11.2578C10.3438 14.4727 9.46484 14.1562 8.76172 13.6289L7.46094 12.6445C7.32031 12.5391 7.14453 12.4688 6.96875 12.4688C6.47656 12.4688 6.08984 12.8906 6.08984 13.3125C6.08984 13.5938 6.23047 13.8398 6.44141 14.0156L7.74219 14.9648C8.76172 15.7383 9.99219 16.125 11.2578 16.125H13.1211C14.3516 16.125 15.3711 15.1758 15.4414 13.9453C16.0742 13.5234 16.4609 12.8203 16.4609 12.0117C16.4609 11.9062 16.4609 11.8008 16.4609 11.6953C17.0586 11.2734 17.4805 10.5703 17.4805 9.76172C17.4805 9.58594 17.4453 9.41016 17.4102 9.19922C18.043 8.77734 18.5 8.07422 18.5 7.23047Z" fill="url(#paint0_linear_596_147)"/>
<defs>
<linearGradient id="paint0_linear_596_147" x1="-2.5" y1="-4" x2="-2.5" y2="20" gradientUnits="userSpaceOnUse">
<stop stop-color="#5EBBFF"/>
<stop offset="1" stop-color="#A174FF"/>
</linearGradient>
</defs>
</svg>
