  <svg   class="App_bars"
 xmlns="http://www.w3.org/2000/svg"
 width="22"
 height="17"
 viewBox="0 0 22 17"
 fill="none" >   <path     d="M0.5 0.75C0.5 0.375 0.828125 0 1.25 0H20.75C21.125 0 21.5 0.375 21.5 0.75C21.5 1.17188 21.125 1.5 20.75 1.5H1.25C0.828125 1.5 0.5 1.17188 0.5 0.75ZM0.5 8.25C0.5 7.875 0.828125 7.5 1.25 7.5H20.75C21.125 7.5 21.5 7.875 21.5 8.25C21.5 8.67188 21.125 9 20.75 9H1.25C0.828125 9 0.5 8.67188 0.5 8.25ZM20.75 16.5H1.25C0.828125 16.5 0.5 16.1719 0.5 15.75C0.5 15.375 0.828125 15 1.25 15H20.75C21.125 15 21.5 15.375 21.5 15.75C21.5 16.1719 21.125 16.5 20.75 16.5Z"
                fill="url(#paint0_linear_1225_6970)"
              />
              <defs>
                <linearGradient
                  id="paint0_linear_1225_6970"
                  x1="-1"
                  y1="-3"
                  x2="-1"
                  y2="21"
                  gradientUnits="userSpaceOnUse"
                >
                  <stop stop-color="#5EBBFF" />
                  <stop offset="1" stop-color="#A174FF" />
                </linearGradient>
              </defs>
            </svg>