<svg width="13" height="14" viewBox="0 0 13 14" fill="none" xmlns="http://www.w3.org/2000/svg">
<path d="M12.375 10.5C12.1875 10.2188 11.875 10.0625 11.5312 10.125C10.2188 10.375 8.84375 10.0312 7.8125 9.1875C6.75 8.28125 6.125 7 6.125 5.625C6.125 3.96875 7.03125 2.4375 8.4375 1.625C8.71875 1.46875 8.875 1.125 8.84375 0.78125C8.78125 0.46875 8.53125 0.1875 8.1875 0.125C7.84375 0.0625 7.28125 0 6.90625 0C3.09375 0 0 3.15625 0 7C0 10.875 3.09375 14 6.90625 14C9.03125 14 10.9688 13.0625 12.3125 11.4062C12.5312 11.1562 12.5312 10.7812 12.375 10.5ZM6.90625 13C3.65625 13 1 10.3125 1 7C1 3.71875 3.65625 1 6.90625 1C7.0625 1 7.28125 1.03125 7.46875 1.0625C6.03125 2.09375 5.125 3.78125 5.125 5.625C5.125 7.3125 5.875 8.875 7.15625 9.9375C8.3125 10.875 9.75 11.3125 11.1875 11.1875C10.0625 12.3438 8.53125 13 6.90625 13Z" fill="#808B9A"/>
</svg>
