<svg width="10" height="11" viewBox="0 0 10 11" fill="none" xmlns="http://www.w3.org/2000/svg">
<path d="M9.39379 9.23321C9.0651 9.45156 8.65127 9.35571 8.44241 9.04131C8.43292 9.02701 8.43292 9.02701 8.43292 9.02701L3.97587 10.9373C3.74252 11.0512 3.45241 10.9555 3.31001 10.7412L0.16768 6.01085C0.0252788 5.79648 0.0495717 5.49198 0.244949 5.321L3.73367 1.95298C3.73367 1.95298 3.73367 1.95298 3.72418 1.93869C3.51533 1.62429 3.58739 1.20567 3.91608 0.987317C4.23048 0.778461 4.6586 0.864817 4.86746 1.17922C5.06682 1.47933 4.98996 1.92174 4.67556 2.13059C4.54694 2.21604 4.39464 2.23482 4.24713 2.22982L4.07259 4.19953C4.05299 4.54211 4.3428 4.82333 4.68548 4.78107L6.87956 4.5182C6.87517 4.29455 6.97071 4.0663 7.18508 3.9239C7.49948 3.71504 7.9276 3.8014 8.14594 4.13009C8.3548 4.44449 8.25895 4.85832 7.94455 5.06718C7.73019 5.20958 7.48275 5.20917 7.26879 5.10413L6.17594 7.02475C6.00415 7.32425 6.16054 7.7147 6.48392 7.82944L8.35779 8.41781C8.41985 8.29419 8.5057 8.17537 8.63432 8.08993C8.94872 7.88107 9.36734 7.95314 9.58569 8.28183C9.79455 8.59623 9.70819 9.02435 9.39379 9.23321Z" fill="#F5C70E"/>
</svg>
