<svg width="81" height="80" viewBox="0 0 81 80" fill="none" xmlns="http://www.w3.org/2000/svg">
<path d="M7.86014 69.5677C9.77214 71.2173 12.4201 71.7133 14.8761 71.8285C19.7801 72.0157 24.7497 70.4317 28.5865 67.3597C28.5865 70.9757 28.5823 74.5922 28.5737 78.2093C28.5737 78.7405 29.4569 78.9373 29.4585 78.3261C29.4585 74.8445 29.4623 71.3634 29.4697 67.8829C29.4697 67.3933 29.4697 66.9053 29.4697 66.4157C29.4697 66.0653 29.0009 65.7389 28.7065 66.0013C23.9849 70.1709 17.0217 72.0685 10.9001 70.2845C9.66174 69.8781 8.36414 69.2365 7.68574 68.0781C6.98334 67.0013 6.79934 65.4893 7.72734 64.4813C8.89534 63.2109 10.8121 63.3853 12.3673 63.7101C13.1993 63.8541 13.9673 64.2189 14.8121 64.2941C18.9721 64.8189 23.1417 63.3581 26.4921 60.9421C28.4893 59.5261 30.2659 57.8223 31.7641 55.8861C31.8041 55.8381 31.8009 55.7757 31.8297 55.7261C31.8529 55.6718 31.8559 55.6111 31.8383 55.5548C31.8207 55.4985 31.7837 55.4503 31.7337 55.4189C31.6777 55.3132 31.5831 55.2331 31.4696 55.1953C31.3561 55.1574 31.2324 55.1647 31.1241 55.2157C23.2585 53.0637 21.2505 42.6797 25.0281 36.2333C27.8873 31.6813 33.0745 28.7933 38.3753 28.2637C45.8953 27.5325 53.1561 31.7165 55.6873 38.9501C57.4681 43.9757 56.0761 49.9277 52.3929 53.7517C51.9183 54.2358 51.4004 54.6755 50.8457 55.0653C50.8118 55.0811 50.7818 55.1042 50.7578 55.1329C50.7338 55.1616 50.7164 55.1953 50.7069 55.2315C50.6975 55.2678 50.6961 55.3056 50.703 55.3424C50.7098 55.3792 50.7247 55.4141 50.7465 55.4445C51.74 56.8575 52.9526 58.1031 54.3385 59.1341C56.2001 60.5378 58.3485 61.5134 60.6305 61.991C62.9126 62.4686 65.2719 62.4366 67.5401 61.8973C68.0857 61.7501 68.6345 61.6221 69.1849 61.4973C70.1529 61.2765 71.2089 60.9373 72.1273 61.3085C72.4986 61.4656 72.8303 61.7033 73.0985 62.0044C73.3666 62.3054 73.5645 62.6623 73.6777 63.0493C74.2057 64.7229 73.3097 66.3677 72.0265 67.4077C67.3449 70.8205 60.3721 70.8893 55.5465 67.7085C55.0566 67.381 54.5874 67.0235 54.1417 66.6381C53.9561 66.4781 53.3081 66.4541 53.3097 66.8109L53.3673 78.3933C53.3673 78.8253 54.3273 78.8733 54.3273 78.4509C54.3081 74.8701 54.29 71.2893 54.2729 67.7085C59.1993 71.3357 66.2985 71.5933 71.6169 68.6205C73.0569 67.7757 74.3641 66.5709 74.7129 64.8637C75.0969 62.9821 74.0057 61.0765 72.1097 60.6141C70.9289 60.3261 69.7577 60.6861 68.6073 60.9485C68.0793 61.0717 67.5497 61.1917 67.0297 61.3405C64.1781 61.9857 61.1986 61.7631 58.4744 60.7013C55.7503 59.6395 53.4061 57.787 51.7433 55.3821C56.2569 52.0029 58.1833 46.0301 57.1257 40.5709C56.5945 38.0893 55.3529 35.7709 53.7801 33.7949C46.6649 25.1005 32.4233 25.7869 25.3961 34.2397C23.3689 36.5645 22.4201 39.6205 22.2809 42.6685C21.8361 48.2301 25.0521 54.2605 30.6601 55.7645C26.9657 60.1837 21.5401 63.8525 15.5513 63.4717C15.0809 63.4413 14.6105 63.3837 14.1465 63.3117C13.7833 63.1805 13.4121 63.0765 13.0377 62.9789C11.7929 62.6589 10.4009 62.4173 9.12414 62.6877C5.54334 63.4493 5.46014 67.3789 7.86014 69.5677Z" fill="#808B9A"/>
<path d="M22.1448 12.9811C22.5506 13.1359 22.975 13.2365 23.4072 13.2803C22.6072 14.1667 22.6072 15.6195 24.0744 15.6275C26.052 15.4291 28.0056 14.9443 29.9224 14.4243C33.7304 13.3436 37.3657 11.7275 40.7192 9.62431C41.9992 8.82431 43.4232 7.96031 44.3448 6.72351C44.9944 8.80351 43.884 10.9491 42.5656 12.5203C37.3925 12.9131 32.3981 14.585 28.0312 17.3859C27.2312 17.8963 26.4312 18.4451 25.9512 19.2787C25.5224 20.0179 25.4712 21.0083 25.9512 21.7363C26.4984 22.5619 27.5704 22.6339 28.46 22.5139C30.233 22.2412 31.9463 21.6671 33.5256 20.8163C32.8413 21.2431 32.2023 21.7384 31.6184 22.2947C31.2648 22.6307 30.9 22.9827 30.7128 23.4451C30.2888 24.4611 31.0328 25.2931 32.0888 25.1859C33.0264 25.0803 33.8856 24.6179 34.7592 24.2851C37.096 23.2854 39.3224 22.0451 41.4024 20.5843C41.212 22.0547 39.8536 23.0819 38.8952 24.1043C38.22 24.7763 37.5197 25.4216 36.7944 26.0403C36.696 26.1136 36.6295 26.2217 36.6084 26.3425C36.5872 26.4633 36.6131 26.5876 36.6808 26.6899C36.7597 26.784 36.8718 26.8442 36.9938 26.8582C37.1158 26.8722 37.2386 26.8389 37.3368 26.7651C38.1528 26.0643 38.9405 25.3331 39.7 24.5715C40.8488 23.3427 42.7064 21.8387 42.2712 19.9555C43.756 18.7907 45.2344 17.3267 45.5144 15.3875C45.7112 14.1635 45.1816 12.5347 43.7416 12.4915C45.1128 10.6755 46.236 7.89471 44.916 5.77151C45.4472 4.52511 45.42 2.74751 44.2424 1.87871C41.756 0.598714 36.4248 1.54591 33.7432 2.23071C29.7016 3.24991 23.38 5.46271 20.988 9.00671C19.9176 10.5251 20.3992 12.2931 22.1448 12.9811ZM32.82 20.1603C31.6416 20.759 30.3899 21.2006 29.0968 21.4739C28.1752 21.6835 26.5912 21.9331 26.5464 20.5683C26.4904 19.0451 28.7624 18.0195 29.8904 17.3123C33.5083 15.258 37.5102 13.97 41.6472 13.5283C40.2897 14.8595 38.8466 16.1006 37.3272 17.2435C35.9112 18.3379 34.42 19.3603 32.82 20.1603ZM40.6056 20.0195C38.2803 21.643 35.761 22.969 33.1064 23.9667C32.636 24.1267 32.188 24.3667 31.6952 24.2243C31.6616 24.2243 31.5976 24.1507 31.6008 24.1667C31.1656 23.6867 32.5944 22.6435 32.9368 22.3347C34.9486 20.7305 37.4201 19.8107 39.9912 19.7091C40.2904 19.6979 40.644 19.6739 40.932 19.7907L40.6056 20.0195ZM43.0296 13.4131C43.412 13.3907 43.8296 13.3459 44.1288 13.5859C44.9016 14.3475 44.6216 15.6755 44.172 16.5459C43.6232 17.6099 42.7208 18.4499 41.7608 19.1843C41.3821 18.9072 40.9209 18.7662 40.452 18.7843C38.4725 18.7748 36.5189 19.2343 34.7512 20.1251C36.9096 18.8211 38.8776 17.2275 40.7736 15.5763C41.5552 14.9056 42.2917 14.184 42.9784 13.4163L43.0296 13.4131ZM21.3816 10.9091C21.3592 10.8339 21.3896 10.9091 21.3928 10.9555C21.3896 10.9395 21.3848 10.9235 21.3816 10.9091ZM43.5096 6.32031C42.9864 6.96991 42.3128 7.47551 41.6296 7.94751C37.0464 11.0872 31.8711 13.2595 26.42 14.3315C25.7437 14.4648 25.0632 14.58 24.3784 14.6771C24.2125 14.7157 24.0394 14.7107 23.876 14.6627C23.8968 14.6627 23.836 14.6131 23.8504 14.6355C23.8365 14.6212 23.8257 14.6041 23.8188 14.5854C23.8119 14.5666 23.809 14.5466 23.8104 14.5267C23.8568 14.0019 24.2808 13.6419 24.652 13.3219C27.5832 13.2035 30.412 12.2643 33.1544 11.2931C33.2103 11.2721 33.2615 11.2403 33.3051 11.1995C33.3487 11.1587 33.3838 11.1097 33.4085 11.0553C33.4331 11.0009 33.4468 10.9422 33.4488 10.8826C33.4508 10.8229 33.441 10.7634 33.42 10.7075C33.399 10.6516 33.3672 10.6004 33.3264 10.5568C33.2855 10.5132 33.2366 10.4781 33.1822 10.4534C33.1278 10.4288 33.0691 10.4151 33.0094 10.4131C32.9497 10.4111 32.8903 10.4209 32.8344 10.4419C30.5704 11.2595 28.2744 11.9955 25.8872 12.3075C29.599 9.42867 33.9134 7.42573 38.508 6.44831C39.3784 6.26591 40.2552 6.12085 41.1384 6.01311C41.5768 5.96031 42.0184 5.91391 42.46 5.88191C42.9016 5.84991 43.3448 5.82271 43.732 6.01311C43.6632 6.11551 43.5912 6.21791 43.5096 6.32031ZM21.348 10.4739C21.3539 10.3967 21.369 10.3204 21.3928 10.2467C21.364 10.3923 21.3928 10.2467 21.4104 10.2003C21.4709 10.0302 21.5442 9.86498 21.6296 9.70591L21.6904 9.59391C21.708 9.56351 21.7976 9.42591 21.7144 9.55231C22.6856 8.04671 24.252 7.05791 25.7816 6.19231C30.1768 3.88671 35.0488 2.46271 40.004 2.19231C41.0661 2.13716 42.1309 2.22324 43.1704 2.44831C43.8104 2.55231 44.1496 3.10111 44.2504 3.68671C44.3372 4.18136 44.3032 4.68966 44.1512 5.16831C42.9512 4.70431 41.5992 5.05471 40.364 5.19551C34.4496 6.05884 28.894 8.55759 24.324 12.4099C23.3128 12.3795 22.0488 12.2499 21.5064 11.2707H21.5144C21.3996 11.021 21.3428 10.7487 21.348 10.4739Z" fill="#808B9A"/>
<path d="M21.5146 11.2793C21.5258 11.3033 21.5418 11.3225 21.553 11.3465C21.5642 11.3705 21.5658 11.3321 21.5146 11.2793Z" fill="#808B9A"/>
<path d="M43.4456 47.0799C41.4909 47.5294 39.6007 48.224 37.82 49.1471C37.6392 49.2415 37.436 49.4799 37.508 49.6991C37.58 49.9183 37.8616 49.8895 38.0248 49.8047C39.7363 48.9219 41.5522 48.2586 43.4296 47.8303C43.8824 47.7327 44.1112 46.9551 43.4456 47.0799Z" fill="#808B9A"/>
<path d="M33.4683 38.8797V41.2797C33.4683 42.5149 35.3883 42.5181 35.3883 41.2797V38.8797C35.3883 37.6477 33.4683 37.6461 33.4683 38.8797Z" fill="#808B9A"/>
<path d="M44.689 38.8797V41.2797C44.689 42.5149 46.609 42.5181 46.609 41.2797V38.8797C46.609 37.6477 44.689 37.6461 44.689 38.8797Z" fill="#808B9A"/>
</svg>
