<svg width="18" height="19" viewBox="0 0 18 19" fill="none" xmlns="http://www.w3.org/2000/svg">
<path d="M16.1367 7C16.1367 7 16.1016 7 16.0664 7.03516C14.3438 7.10547 11.1445 7.49219 9 8.6875C6.82031 7.49219 3.65625 7.10547 1.89844 7.03516C1.86328 7 1.82812 7 1.82812 7C1.08984 7 0 7.52734 0 8.79297V15.0156C0 15.9648 0.738281 16.7383 1.6875 16.8086C2.88281 16.8789 5.90625 17.125 7.91016 18.1094C8.05078 18.2148 8.26172 18.25 8.4375 18.25H9.5625C9.73828 18.25 9.87891 18.2148 10.0547 18.1094C12.0586 17.125 15.082 16.8789 16.2773 16.8086C17.2266 16.7383 18 15.9648 18 15.0508V8.79297C18 7.52734 16.875 7 16.1367 7ZM8.40234 17.125C8.40234 17.125 8.4375 17.125 8.40234 17.125C6.32812 16.0703 3.33984 15.7539 1.75781 15.6836C1.37109 15.6484 1.125 15.3672 1.125 15.0508V8.79297C1.125 8.58203 1.16016 8.44141 1.30078 8.30078C1.47656 8.19531 1.6875 8.125 1.82812 8.125C3.12891 8.23047 6.36328 8.51172 8.4375 9.67188L8.40234 17.125ZM16.875 15.0508C16.875 15.3672 16.5938 15.6484 16.2422 15.6836C14.625 15.7539 11.6367 16.0703 9.5625 17.125C9.52734 17.125 9.5625 17.125 9.5625 17.125V9.67188C11.6016 8.51172 14.8359 8.23047 16.1367 8.125C16.1719 8.125 16.875 8.16016 16.875 8.79297V15.0508ZM9 7C10.8633 7 12.375 5.48828 12.375 3.625C12.375 1.76172 10.8633 0.25 9 0.25C7.13672 0.25 5.625 1.76172 5.625 3.625C5.625 5.48828 7.13672 7 9 7ZM9 1.375C10.2305 1.375 11.25 2.39453 11.25 3.625C11.25 4.89062 10.2305 5.875 9 5.875C7.73438 5.875 6.75 4.89062 6.75 3.625C6.75 2.39453 7.73438 1.375 9 1.375Z" fill="url(#paint0_linear_516_183)"/>
<defs>
<linearGradient id="paint0_linear_516_183" x1="-3" y1="-3" x2="-3" y2="21" gradientUnits="userSpaceOnUse">
<stop stop-color="#5EBBFF"/>
<stop offset="1" stop-color="#A174FF"/>
</linearGradient>
</defs>
</svg>
