<svg width="12" height="16" viewBox="0 0 12 16" fill="none" xmlns="http://www.w3.org/2000/svg">
<path d="M7.86328 0.375H4.10156C2.02734 0.375 0.375 2.0625 0.375 4.13672V4.875C0.375 5.19141 0.621094 5.4375 0.9375 5.4375C1.21875 5.4375 1.5 5.19141 1.5 4.875V4.13672C1.5 2.69531 2.66016 1.5 4.10156 1.5H7.86328C9.30469 1.5 10.5 2.69531 10.5 4.13672C10.5 5.08594 9.97266 5.96484 9.12891 6.45703L5.71875 8.35547C5.19141 8.67188 4.875 9.23438 4.875 9.83203V11.0625C4.875 11.3789 5.12109 11.6602 5.4375 11.6602C5.71875 11.6602 6 11.3789 6 11.0625V9.83203C6 9.62109 6.10547 9.44531 6.28125 9.33984L9.69141 7.40625C10.8867 6.77344 11.625 5.50781 11.625 4.13672C11.625 2.0625 9.9375 0.375 7.86328 0.375ZM5.4375 13.3125C4.80469 13.3125 4.3125 13.8398 4.3125 14.4375C4.3125 15.0703 4.80469 15.5625 5.4375 15.5625C6.03516 15.5625 6.5625 15.0703 6.5625 14.4375C6.5625 13.8398 6.03516 13.3125 5.4375 13.3125Z" fill="url(#paint0_linear_2062_6664)"/>
<defs>
<linearGradient id="paint0_linear_2062_6664" x1="-6" y1="-4" x2="-6" y2="20" gradientUnits="userSpaceOnUse">
<stop stop-color="#5EBBFF"/>
<stop offset="1" stop-color="#A174FF"/>
</linearGradient>
</defs>
</svg>
