<svg width="16" height="16" viewBox="0 0 16 16" fill="none" xmlns="http://www.w3.org/2000/svg">
<circle cx="8" cy="8" r="8" fill="#48BD49"/>
<path d="M2.66675 7.99935C2.66675 5.06185 5.04175 2.66602 8.00008 2.66602C10.9376 2.66602 13.3334 5.06185 13.3334 7.99935C13.3334 10.9577 10.9376 13.3327 8.00008 13.3327C5.04175 13.3327 2.66675 10.9577 2.66675 7.99935ZM10.3959 7.08268C10.6251 6.85352 10.6251 6.49935 10.3959 6.27018C10.1667 6.04102 9.81258 6.04102 9.58341 6.27018L7.33341 8.52018L6.39591 7.60352C6.16675 7.37435 5.81258 7.37435 5.58341 7.60352C5.35425 7.83268 5.35425 8.18685 5.58341 8.41602L6.91675 9.74935C7.14591 9.97852 7.50008 9.97852 7.72925 9.74935L10.3959 7.08268Z" fill="white"/>
</svg>
