<svg width="19" height="17" viewBox="0 0 19 17" fill="none" xmlns="http://www.w3.org/2000/svg">
<path d="M5 9.375V1.53516C5 0.902344 4.47266 0.410156 3.875 0.410156H1.625C0.992188 0.410156 0.5 0.9375 0.5 1.53516V9.375C0.5 9.97266 0.992188 10.4648 1.625 10.4648H3.875C4.47266 10.5 5 10.0078 5 9.375ZM17.4102 7.33594C17.4453 7.16016 17.4805 6.94922 17.4805 6.77344C17.4805 5.96484 17.0586 5.26172 16.4609 4.83984C16.4609 4.73438 16.4609 4.62891 16.4609 4.52344C16.4609 3.71484 16.0742 3.01172 15.4414 2.58984C15.3711 1.35938 14.3516 0.410156 13.1211 0.410156H11.2578C9.99219 0.410156 8.76172 0.796875 7.74219 1.57031L6.44141 2.51953C6.23047 2.69531 6.125 2.94141 6.125 3.22266C6.125 3.64453 6.47656 4.06641 6.96875 4.06641C7.14453 4.06641 7.32031 3.99609 7.46094 3.89062L8.76172 2.90625C9.46484 2.37891 10.3438 2.0625 11.2578 2.0625H13.1211C13.4727 2.0625 13.7891 2.37891 13.7891 2.73047C13.7891 2.87109 13.7188 2.90625 13.7188 3.08203C13.7188 4.03125 14.7734 3.71484 14.7734 4.52344C14.7734 4.83984 14.5625 4.875 14.5625 5.29688C14.5625 5.78906 14.9492 6.07031 15.2305 6.10547C15.5469 6.17578 15.793 6.45703 15.793 6.77344C15.793 7.23047 15.3711 7.23047 15.3711 7.79297C15.3711 8.21484 15.7227 8.60156 16.1797 8.63672C16.5312 8.63672 16.8125 8.95312 16.8125 9.26953C16.8125 9.62109 16.4961 9.9375 16.1445 9.9375H11.293C10.8359 9.9375 10.4492 10.2891 10.4492 10.7461C10.4492 10.8867 10.4844 11.0273 10.5547 11.1328C11.1875 12.3281 11.4688 13.4531 11.4688 13.7344C11.4688 14.0156 11.2578 14.4375 10.6602 14.4375C10.2383 14.4375 10.168 14.4375 9.81641 13.4531C8.9375 11.2734 7.63672 9.97266 6.96875 9.97266C6.47656 9.97266 6.125 10.3594 6.125 10.8164C6.125 11.0625 6.23047 11.3086 6.44141 11.4492C8.86719 13.3828 7.91797 16.125 10.6602 16.125C12.207 16.125 13.1562 14.8945 13.1562 13.7344C13.1562 13.2773 12.9453 12.4688 12.6289 11.625H16.1445C17.4102 11.625 18.5 10.5703 18.5 9.26953C18.5 8.46094 18.043 7.72266 17.4102 7.33594Z" fill="url(#paint0_linear_596_36)"/>
<defs>
<linearGradient id="paint0_linear_596_36" x1="-2.5" y1="-4" x2="-2.5" y2="20" gradientUnits="userSpaceOnUse">
<stop stop-color="#5EBBFF"/>
<stop offset="1" stop-color="#A174FF"/>
</linearGradient>
</defs>
</svg>
