<svg width="16" height="19" viewBox="0 0 16 19" fill="none" xmlns="http://www.w3.org/2000/svg">
<path d="M7.40234 0.8125C7.40234 0.53125 7.68359 0.25 7.96484 0.25C8.28125 0.25 8.5625 0.53125 8.5625 0.8125V1.41016C11.375 1.69141 13.625 4.08203 13.625 7V8.05469C13.625 9.56641 14.2227 11.043 15.3125 12.1328L15.418 12.2383C15.6992 12.5195 15.875 12.9062 15.875 13.3281C15.875 14.207 15.1719 14.875 14.293 14.875H1.67188C0.792969 14.875 0.125 14.207 0.125 13.3281C0.125 12.9062 0.265625 12.5195 0.546875 12.2383L0.652344 12.1328C1.74219 11.043 2.375 9.56641 2.375 8.05469V7C2.375 4.08203 4.58984 1.69141 7.4375 1.41016L7.40234 0.8125ZM7.96484 2.5C5.50391 2.5 3.46484 4.53906 3.46484 7V8.05469C3.46484 9.88281 2.76172 11.6406 1.46094 12.9414L1.35547 13.0117C1.28516 13.1172 1.21484 13.2227 1.21484 13.3281C1.21484 13.5742 1.42578 13.75 1.67188 13.75H14.293C14.5391 13.75 14.75 13.5742 14.75 13.3281C14.75 13.2227 14.6797 13.1172 14.6094 13.0117L14.5039 12.9414C13.2031 11.6406 12.5 9.88281 12.5 8.05469V7C12.5 4.53906 10.4609 2.5 7.96484 2.5ZM7.96484 17.125C8.45703 17.125 8.87891 16.8438 9.05469 16.3867C9.16016 16.1055 9.47656 15.9297 9.75781 16.0352C10.0391 16.1406 10.2148 16.457 10.1094 16.7734C9.79297 17.6523 8.94922 18.25 7.96484 18.25C7.01562 18.25 6.17188 17.6523 5.85547 16.7734C5.75 16.457 5.92578 16.1406 6.20703 16.0352C6.48828 15.9297 6.80469 16.1055 6.91016 16.3867C7.08594 16.8438 7.50781 17.125 7.96484 17.125Z" fill="url(#paint0_linear_4291_7830)"/>
<defs>
<linearGradient id="paint0_linear_4291_7830" x1="-4" y1="-3" x2="-4" y2="21" gradientUnits="userSpaceOnUse">
<stop stop-color="#5EBBFF"/>
<stop offset="1" stop-color="#A174FF"/>
</linearGradient>
</defs>
</svg>
