<svg width="18" height="24" viewBox="0 0 18 24" fill="none" xmlns="http://www.w3.org/2000/svg">
<path d="M15 0H3C1.3125 0 0 1.35938 0 3V23.25C0 23.4844 0.140625 23.7656 0.375 23.9062C0.609375 24 0.890625 24 1.125 23.8594L9 18.8906L16.8281 23.8594C16.9688 24 17.1094 24 17.25 24C17.3438 24 17.4844 24 17.5781 23.9531C17.8125 23.8125 18 23.5312 18 23.25V3C18 1.35938 16.6406 0 15 0ZM16.5 21.8906L9.375 17.3906C9.23438 17.2969 9.14062 17.25 9 17.25C8.85938 17.25 8.71875 17.2969 8.57812 17.3906L1.5 21.8906V3C1.5 2.20312 2.15625 1.5 3 1.5H15C15.7969 1.5 16.5 2.20312 16.5 3V21.8906Z" fill="#0093FC"/>
</svg>
