<svg width="17" height="19" viewBox="0 0 17 19" fill="none" xmlns="http://www.w3.org/2000/svg">
<path d="M14.625 0.25H4.5C3.23438 0.25 2.25 1.26953 2.25 2.5V4.1875H0.5625C0.246094 4.1875 0 4.46875 0 4.75C0 5.06641 0.246094 5.3125 0.5625 5.3125H2.25V8.6875H0.5625C0.246094 8.6875 0 8.96875 0 9.25C0 9.56641 0.246094 9.8125 0.5625 9.8125H2.25V13.1875H0.5625C0.246094 13.1875 0 13.4688 0 13.75C0 14.0664 0.246094 14.3125 0.5625 14.3125H2.25V16C2.25 17.2656 3.23438 18.25 4.5 18.25H14.625C15.8555 18.25 16.875 17.2656 16.875 16V2.5C16.875 1.26953 15.8555 0.25 14.625 0.25ZM4.5 17.125C3.86719 17.125 3.375 16.6328 3.375 16V14.3125H4.57031C4.88672 14.3125 5.13281 14.0664 5.13281 13.75C5.13281 13.4688 4.88672 13.1875 4.57031 13.1875H3.375V9.8125H4.57031C4.88672 9.8125 5.13281 9.56641 5.13281 9.25C5.13281 8.96875 4.88672 8.6875 4.57031 8.6875H3.375V5.3125H4.57031C4.88672 5.3125 5.13281 5.06641 5.13281 4.75C5.13281 4.46875 4.88672 4.1875 4.57031 4.1875H3.375V2.5C3.375 1.90234 3.86719 1.375 4.5 1.375H6.75V17.125H4.5ZM15.75 16C15.75 16.6328 15.2227 17.125 14.625 17.125H7.875V1.375H14.625C15.2227 1.375 15.75 1.90234 15.75 2.5V16Z" fill="url(#paint0_linear_516_185)"/>
<defs>
<linearGradient id="paint0_linear_516_185" x1="-3" y1="-3" x2="-3" y2="21" gradientUnits="userSpaceOnUse">
<stop stop-color="#5EBBFF"/>
<stop offset="1" stop-color="#A174FF"/>
</linearGradient>
</defs>
</svg>
