<svg width="24" height="19" viewBox="0 0 24 19" fill="none" xmlns="http://www.w3.org/2000/svg">
<path d="M11.2969 11.2539C11.5781 11.1133 11.8945 11.1836 12.0703 11.4648C12.2109 11.7461 12.1406 12.0625 11.8594 12.2383L10.1719 13.2227C9.89062 13.3633 9.53906 13.2578 9.39844 13.0117C9.22266 12.7305 9.32812 12.3789 9.60938 12.2383L11.2969 11.2539ZM6.86719 6.22656C6.9375 5.98047 7.18359 5.80469 7.42969 5.875L11.2617 6.96484C12.3867 7.28125 13.0195 8.51172 12.6328 9.63672C12.3516 10.4453 11.543 10.9023 10.7344 10.8672C10.5586 10.8672 10.3828 10.8672 10.2422 10.7969L9.82031 10.6914L9.75 11.0781C9.71484 11.2188 9.64453 11.3594 9.60938 11.5C9.22266 12.2734 8.37891 12.7656 7.5 12.5898C6.33984 12.3789 5.63672 11.1836 5.91797 10.0938L6.86719 6.22656ZM7.00781 10.3398C6.86719 10.8672 7.21875 11.3945 7.71094 11.5C8.09766 11.5352 8.51953 11.2891 8.66016 10.832L8.97656 9.28516L10.5234 9.74219C11.0156 9.84766 11.4727 9.60156 11.5781 9.25C11.7539 8.75781 11.4727 8.19531 10.9805 8.05469L7.78125 7.17578L7.00781 10.3398ZM6.86719 17.3008C6.86719 17.3008 6.86719 17.3008 6.86719 17.2656L0.996094 7.14062C0.996094 7.10547 0.996094 7.10547 0.996094 7.10547C0.46875 6.15625 0.785156 4.99609 1.69922 4.43359L8.48438 0.53125C9.43359 0.00390625 10.6289 0.320312 11.1562 1.23438L17.0273 11.4297C17.5898 12.3438 17.2734 13.5391 16.3242 14.0664C16.3242 14.1016 16.3242 14.1016 16.3242 14.1016L9.53906 18.0039C8.58984 18.5312 7.42969 18.2148 6.86719 17.3008ZM8.97656 17.0195L15.7617 13.1172C16.1484 12.8711 16.2891 12.3789 16.043 11.957L10.207 1.83203C9.96094 1.41016 9.43359 1.26953 9.04688 1.51562L2.29688 5.41797C1.875 5.62891 1.73438 6.15625 1.98047 6.54297L7.85156 16.7383C8.0625 17.125 8.58984 17.2656 8.97656 17.0195ZM13.4062 18.25C12.9141 18.25 12.457 18.1094 12.1406 17.793L13.3008 17.125C13.3359 17.125 13.3711 17.125 13.4062 17.125H21.2812C21.7383 17.125 22.125 16.7734 22.125 16.2812V4.46875C22.125 4.01172 21.7383 3.625 21.2812 3.625H13.8633L13.1953 2.53516C13.2656 2.53516 13.3359 2.5 13.4062 2.5H21.2812C22.3359 2.5 23.25 3.41406 23.25 4.46875V16.2812C23.25 17.3711 22.3359 18.25 21.2812 18.25H13.4062ZM16.5 5.13672C17.0625 4.64453 17.8711 4.67969 18.4336 5.06641C19.0312 4.67969 19.8047 4.64453 20.4023 5.13672C21.1406 5.76953 21.1758 6.89453 20.5078 7.5625L19.0312 9.10938C18.7148 9.39062 18.1875 9.42578 17.8711 9.07422L16.3945 7.5625C15.7266 6.89453 15.7617 5.76953 16.5 5.13672ZM17.2383 5.98047C16.9922 6.19141 16.9922 6.54297 17.2031 6.78906L18.4688 8.08984L19.6992 6.78906C19.9102 6.54297 19.9102 6.19141 19.6641 5.98047C19.4883 5.83984 19.207 5.83984 18.9961 6.05078L18.4688 6.64844L17.9062 6.05078C17.6953 5.83984 17.3789 5.83984 17.2383 5.98047Z" fill="url(#paint0_linear_516_346)"/>
<defs>
<linearGradient id="paint0_linear_516_346" x1="0" y1="-3" x2="1.69982e-07" y2="21" gradientUnits="userSpaceOnUse">
<stop stop-color="#5EBBFF"/>
<stop offset="1" stop-color="#A174FF"/>
</linearGradient>
</defs>
</svg>
