<svg width="14" height="15" viewBox="0 0 14 15" fill="none" xmlns="http://www.w3.org/2000/svg">
<path d="M7 0.75C3.11719 0.75 0 3.89453 0 7.75C0 11.6328 3.11719 14.75 7 14.75C10.8555 14.75 14 11.6328 14 7.75C14 3.89453 10.8555 0.75 7 0.75ZM0.875 7.75C0.875 6.21875 1.42188 4.82422 2.35156 3.75781L10.9922 12.3984C9.92578 13.3281 8.53125 13.875 7 13.875C3.60938 13.875 0.875 11.1406 0.875 7.75ZM11.6211 11.7695L2.98047 3.12891C4.04688 2.19922 5.44141 1.625 7 1.625C10.3633 1.625 13.125 4.38672 13.125 7.75C13.125 9.28125 12.5508 10.7031 11.6211 11.7695Z" fill="#0093FC"/>
</svg>
