<svg width="22" height="18" viewBox="0 0 22 18" fill="none" xmlns="http://www.w3.org/2000/svg">
<path d="M17 2C17.5312 2 18 2.46875 18 3V12L18.875 12.6875C18.9375 12.4688 18.9688 12.25 18.9688 12V3C18.9688 1.875 18.0938 1 17 1H4.96875C4.6875 1 4.46875 1.0625 4.21875 1.15625L5.34375 2H17ZM12.4688 13C12.25 13 12.0625 13.0938 11.875 13.2188L9 15.375V13.5C9 13.25 8.75 13 8.5 13H5C4.4375 13 4 12.5625 4 12V6.03125L3 5.25V12C3 13.125 3.875 14 4.96875 14H7.9375V16.625C7.9375 16.9062 8.28125 17.0938 8.53125 16.9062L12.4375 14H14.0312L12.7812 13H12.4688ZM20.7812 16.125L1.78125 1.125C1.5625 0.9375 1.25 1 1.09375 1.21875C0.90625 1.40625 0.96875 1.75 1.1875 1.90625L20.1875 16.9062C20.2812 16.9688 20.375 17 20.5 17C20.625 17 20.7812 16.9375 20.875 16.8125C21.0625 16.5938 21 16.2812 20.7812 16.125Z" fill="#808B9A"/>
</svg>
