<svg version="1.0" xmlns="http://www.w3.org/2000/svg" width="69.333" height="69.333" viewBox="0 0 512 512"     fill="red" ><path d="M458.5 15.1c-19.2 2-35.1 15.9-40.6 35.4-2.1 7.5-2.1 403.5 0 411 6.1 21.7 24.2 35.6 46.1 35.6 13.6-.1 24.2-4.4 33.3-13.5 6.1-6.1 10.8-13.7 12.8-21.1 1.2-4.2 1.4-37.4 1.4-206.5s-.2-202.3-1.4-206.5c-4.1-14.7-17.2-28.2-31.6-32.7-5.2-1.6-13.8-2.3-20-1.7zM32 30.4C19.8 33 7.4 43.4 2.8 54.7L.5 60.5v391.1l3.8 7.6c4.3 8.8 10.7 15.2 19.5 19.5 5.2 2.6 6.7 2.8 16.7 2.8 9.2 0 11.8-.4 15.7-2.2 2.6-1.2 67.1-45.4 143.5-98.3 100.7-69.7 140.4-97.7 144.4-102 7.8-8.1 10.2-14.5 9.7-26.1-.5-10.3-3.4-17.2-10-23.6C339 224.7 65.2 37 58 33.4c-4.4-2.2-14.2-4.5-18.4-4.3-1.2 0-4.6.6-7.6 1.3z"/></svg>