<svg version="1.0" xmlns="http://www.w3.org/2000/svg" width="52" height="52p" viewBox="0 0 512 512"><path d="M44 14.8C24.9 16.2 7.1 31 1.9 49.5-.2 57-.2 455 1.9 462.5c2 7.4 6.7 15 12.8 21.1 9.1 9.1 19.7 13.4 33.3 13.5 21.9 0 40-13.9 46.1-35.6 2.1-7.5 2.1-403.5 0-411C87.7 27.7 67.1 13 44 14.8zM463 30.4c-3 .6-7.4 2.1-9.6 3.3-7.5 3.9-280.8 191.4-285.2 195.6-6.6 6.4-9.5 13.3-10 23.6-.5 11.6 1.9 18 9.7 26.1 4 4.3 43.7 32.3 144.4 102 76.4 52.9 140.9 97.1 143.5 98.3 3.9 1.8 6.5 2.2 15.7 2.2 10 0 11.5-.2 16.7-2.8 8.8-4.3 15.2-10.7 19.5-19.5l3.8-7.6V60.5l-2.3-5.8c-4.8-11.7-17.9-22.3-30.6-24.6-7.1-1.3-8.5-1.3-15.6.3z"/></svg>