<svg width="14" height="15" viewBox="0 0 14 15" fill="none" xmlns="http://www.w3.org/2000/svg">
<path d="M3.25 2.25C3.5 2.25 3.75 2.5 3.75 2.75V3.25C3.75 3.53125 3.5 3.75 3.25 3.75H2.75C2.46875 3.75 2.25 3.53125 2.25 3.25V2.75C2.25 2.5 2.46875 2.25 2.75 2.25H3.25ZM4.5 0C5.3125 0 6 0.6875 6 1.5V4.5C6 5.34375 5.3125 6 4.5 6H1.5C0.65625 6 0 5.34375 0 4.5V1.5C0 0.6875 0.65625 0 1.5 0H4.5ZM4.5 1H1.5C1.21875 1 1 1.25 1 1.5V4.5C1 4.78125 1.21875 5 1.5 5H4.5C4.75 5 5 4.78125 5 4.5V1.5C5 1.25 4.75 1 4.5 1ZM2.25 10.75C2.25 10.5 2.46875 10.25 2.75 10.25H3.25C3.5 10.25 3.75 10.5 3.75 10.75V11.25C3.75 11.5312 3.5 11.75 3.25 11.75H2.75C2.46875 11.75 2.25 11.5312 2.25 11.25V10.75ZM4.5 8C5.3125 8 6 8.6875 6 9.5V12.5C6 13.3438 5.3125 14 4.5 14H1.5C0.65625 14 0 13.3438 0 12.5V9.5C0 8.6875 0.65625 8 1.5 8H4.5ZM4.5 9H1.5C1.21875 9 1 9.25 1 9.5V12.5C1 12.7812 1.21875 13 1.5 13H4.5C4.75 13 5 12.7812 5 12.5V9.5C5 9.25 4.75 9 4.5 9ZM11.25 2.25C11.5 2.25 11.75 2.5 11.75 2.75V3.25C11.75 3.53125 11.5 3.75 11.25 3.75H10.75C10.4688 3.75 10.25 3.53125 10.25 3.25V2.75C10.25 2.5 10.4688 2.25 10.75 2.25H11.25ZM8 1.5C8 0.6875 8.65625 0 9.5 0H12.5C13.3125 0 14 0.6875 14 1.5V4.5C14 5.34375 13.3125 6 12.5 6H9.5C8.65625 6 8 5.34375 8 4.5V1.5ZM9 1.5V4.5C9 4.78125 9.21875 5 9.5 5H12.5C12.75 5 13 4.78125 13 4.5V1.5C13 1.25 12.75 1 12.5 1H9.5C9.21875 1 9 1.25 9 1.5ZM8 8.5C8 8.25 8.21875 8 8.5 8H10.5C10.75 8 11 8.25 11 8.5V10.625H13V8.5C13 8.25 13.2188 8 13.5 8C13.75 8 14 8.25 14 8.5V11.125C14 11.4062 13.75 11.625 13.5 11.625H10.5C10.2188 11.625 10 11.4062 10 11.125V9H9V13.75C9 14.0312 8.75 14.25 8.5 14.25C8.21875 14.25 8 14.0312 8 13.75V8.5ZM10 13C10 12.75 10.2188 12.5 10.5 12.5H11C11.25 12.5 11.5 12.75 11.5 13V13.5C11.5 13.7812 11.25 14 11 14H10.5C10.2188 14 10 13.7812 10 13.5V13ZM13.5 12.5C13.75 12.5 14 12.75 14 13V13.5C14 13.7812 13.75 14 13.5 14H13C12.7188 14 12.5 13.7812 12.5 13.5V13C12.5 12.75 12.7188 12.5 13 12.5H13.5Z" fill="#808B9A"/>
</svg>
